<mxfile host="app.diagrams.net" modified="2022-06-14T09:53:45.586Z" agent="5.0 (Macintosh; Intel Mac OS X 10_15_7) AppleWebKit/537.36 (KHTML, like Gecko) Chrome/102.0.0.0 Safari/537.36" etag="lnmdSQsXkkjqirc7439X" version="20.0.1" type="github">
  <diagram id="XNVli7y-VhvbEpnK2XtD" name="Page-1">
    <mxGraphModel dx="579" dy="1397" grid="1" gridSize="10" guides="1" tooltips="1" connect="1" arrows="1" fold="1" page="1" pageScale="1" pageWidth="850" pageHeight="1100" math="0" shadow="0">
      <root>
        <mxCell id="0" />
        <mxCell id="1" parent="0" />
        <mxCell id="9exMI8x2QQ34lEy8owtz-2" value="" style="shape=image;verticalLabelPosition=bottom;labelBackgroundColor=default;verticalAlign=top;aspect=fixed;imageAspect=0;image=https://upload.wikimedia.org/wikipedia/commons/thumb/a/a7/React-icon.svg/512px-React-icon.svg.png?20220125121207;" vertex="1" parent="1">
          <mxGeometry x="608" y="-1080" width="232" height="201.64" as="geometry" />
        </mxCell>
        <mxCell id="9exMI8x2QQ34lEy8owtz-1" value="&lt;h1&gt;React Native&lt;/h1&gt;&lt;div&gt;When I was learning React, well I still and will probably always be doing that, but when I was learning React I was told that React Native was MUCH HARDER than React... for some reason I listened and steered clear for too long. That&#39;s why I&#39;m here to show you how freaking easy it is to setup, create, and get a quick app running on your actual device in less than an hour.&amp;nbsp;&lt;/div&gt;&lt;div&gt;&lt;br&gt;&lt;/div&gt;" style="text;html=1;strokeColor=none;fillColor=default;spacing=5;spacingTop=-20;whiteSpace=wrap;overflow=hidden;rounded=0;opacity=40;" vertex="1" parent="1">
          <mxGeometry x="5" y="-1090" width="840" height="120" as="geometry" />
        </mxCell>
        <mxCell id="9exMI8x2QQ34lEy8owtz-3" value="" style="shape=image;verticalLabelPosition=bottom;labelBackgroundColor=default;verticalAlign=top;aspect=fixed;imageAspect=0;image=https://upload.wikimedia.org/wikipedia/commons/thumb/a/a7/React-icon.svg/512px-React-icon.svg.png?20220125121207;" vertex="1" parent="1">
          <mxGeometry x="210" y="-750" width="59.42" height="51.64" as="geometry" />
        </mxCell>
        <mxCell id="9exMI8x2QQ34lEy8owtz-4" value="" style="shape=image;verticalLabelPosition=bottom;labelBackgroundColor=default;verticalAlign=top;aspect=fixed;imageAspect=0;image=https://upload.wikimedia.org/wikipedia/commons/thumb/a/a7/React-icon.svg/512px-React-icon.svg.png?20220125121207;" vertex="1" parent="1">
          <mxGeometry x="400" y="-830.83" width="129.42" height="112.47" as="geometry" />
        </mxCell>
        <mxCell id="9exMI8x2QQ34lEy8owtz-5" value="" style="shape=image;verticalLabelPosition=bottom;labelBackgroundColor=default;verticalAlign=top;aspect=fixed;imageAspect=0;image=https://upload.wikimedia.org/wikipedia/commons/thumb/a/a7/React-icon.svg/512px-React-icon.svg.png?20220125121207;" vertex="1" parent="1">
          <mxGeometry x="170" y="-590" width="129.42" height="112.47" as="geometry" />
        </mxCell>
        <mxCell id="9exMI8x2QQ34lEy8owtz-6" value="" style="shape=image;verticalLabelPosition=bottom;labelBackgroundColor=default;verticalAlign=top;aspect=fixed;imageAspect=0;image=https://upload.wikimedia.org/wikipedia/commons/thumb/a/a7/React-icon.svg/512px-React-icon.svg.png?20220125121207;" vertex="1" parent="1">
          <mxGeometry x="540" y="-570.48" width="49.42" height="42.95" as="geometry" />
        </mxCell>
        <mxCell id="9exMI8x2QQ34lEy8owtz-7" value="" style="shape=image;verticalLabelPosition=bottom;labelBackgroundColor=default;verticalAlign=top;aspect=fixed;imageAspect=0;image=https://upload.wikimedia.org/wikipedia/commons/thumb/a/a7/React-icon.svg/512px-React-icon.svg.png?20220125121207;" vertex="1" parent="1">
          <mxGeometry x="550" y="-300" width="232" height="201.64" as="geometry" />
        </mxCell>
        <mxCell id="9exMI8x2QQ34lEy8owtz-8" value="1. Get into your projject folder in VS Code or editor of choice." style="text;html=1;strokeColor=none;fillColor=none;align=left;verticalAlign=middle;whiteSpace=wrap;rounded=0;opacity=40;" vertex="1" parent="1">
          <mxGeometry y="-970" width="410" height="30" as="geometry" />
        </mxCell>
        <mxCell id="9exMI8x2QQ34lEy8owtz-9" value="2. Open up the terminal in that directory and run the following commands:" style="text;html=1;strokeColor=none;fillColor=none;align=left;verticalAlign=middle;whiteSpace=wrap;rounded=0;opacity=40;" vertex="1" parent="1">
          <mxGeometry y="-920" width="410" height="30" as="geometry" />
        </mxCell>
      </root>
    </mxGraphModel>
  </diagram>
</mxfile>
